<svg width="28" height="28" viewBox="0 0 28 28" fill="none" xmlns="http://www.w3.org/2000/svg">
<path d="M22 7.51855L15.4902 14.0283L21.9434 20.4814L20.4248 22L13.9717 15.5469L7.5752 21.9434L6.05664 20.4248L12.4531 14.0283L6 7.5752L7.51855 6.05664L13.9717 12.5098L20.4814 6L22 7.51855Z" fill="#0b9b79"/>
<path fill-rule="evenodd" clip-rule="evenodd" d="M23.2568 0.00683594C25.8989 0.140528 28 2.32472 28 5V23L27.9932 23.2568C27.8638 25.8138 25.8138 27.8638 23.2568 27.9932L23 28H5L4.74316 27.9932C2.18618 27.8638 0.136224 25.8138 0.00683594 23.2568L0 23V5C0 2.32472 2.10111 0.140529 4.74316 0.00683594L5 0H23L23.2568 0.00683594ZM5 2C3.34315 2 2 3.34315 2 5V23C2 24.6569 3.34315 26 5 26H23C24.6569 26 26 24.6569 26 23V5C26 3.34315 24.6569 2 23 2H5Z" fill="#0b9b79"/>
</svg>
