<svg width="38" height="37" viewBox="0 0 38 37" fill="none" xmlns="http://www.w3.org/2000/svg">
<path d="M35.8027 17.7354C36.0472 18.1479 36.0779 18.6485 35.8945 19.083L35.8027 19.2646L28.0811 32.2861C27.8109 32.7417 27.3207 33.0215 26.791 33.0215L11.209 33.0215C10.7457 33.0215 10.3124 32.8077 10.0303 32.4492L9.91894 32.2861L2.19726 19.2646C1.95281 18.8521 1.92211 18.3515 2.10547 17.917L2.19726 17.7353L9.91895 4.71387C10.1891 4.25827 10.6793 3.97851 11.209 3.97851L26.791 3.97852C27.2543 3.97852 27.6876 4.19231 27.9697 4.55078L28.0811 4.71387L35.8027 17.7354Z" stroke="white" stroke-width="3"/>
<rect x="13" y="16" width="5" height="5" transform="rotate(-90 13 16)" fill="#E4E4E4"/>
<rect x="18" y="16" width="5" height="5" transform="rotate(-90 18 16)" fill="#E4E4E4"/>
<rect x="23" y="21" width="5" height="4" transform="rotate(-90 23 21)" fill="#E4E4E4"/>
<rect width="4" height="5" transform="matrix(-4.37114e-08 1 1 4.37114e-08 13 21)" fill="#E4E4E4"/>
<rect width="4" height="5" transform="matrix(-4.37114e-08 1 1 4.37114e-08 18 21)" fill="#E4E4E4"/>
</svg>
