<svg width="37" height="37" viewBox="0 0 37 37" fill="none" xmlns="http://www.w3.org/2000/svg">
<path d="M36.134 17C36.6699 17.9282 36.6699 19.0718 36.134 20L28.616 33.0215C28.0801 33.9497 27.0897 34.5215 26.0179 34.5215L10.982 34.5215C9.91025 34.5215 8.91987 33.9497 8.38397 33.0215L0.866023 20C0.330127 19.0718 0.330127 17.9282 0.866023 17L8.38398 3.97853C8.91987 3.05033 9.91025 2.47853 10.982 2.47853L26.018 2.47853C27.0897 2.47853 28.0801 3.05033 28.616 3.97853L36.134 17Z" fill="white"/>
<rect x="11" y="21" width="4" height="5" transform="rotate(-90 11 21)" fill="black"/>
<rect x="16" y="21" width="4" height="4" transform="rotate(-90 16 21)" fill="black"/>
<rect x="16" y="25" width="4" height="4" transform="rotate(-90 16 25)" fill="black"/>
<rect width="5" height="5" transform="matrix(-4.37114e-08 1 1 4.37114e-08 20 12)" fill="black"/>
</svg>
