<svg width="1728" height="1117" viewBox="0 0 1728 1117" fill="none" xmlns="http://www.w3.org/2000/svg">
<circle cx="871" cy="576" r="205.5" stroke="url(#paint0_linear_166_3)" stroke-opacity="0.5" stroke-dasharray="5 5"/>
<circle cx="870.5" cy="575.5" r="226" transform="rotate(60.8882 870.5 575.5)" stroke="url(#paint1_linear_166_3)" stroke-opacity="0.2" stroke-dasharray="5 5"/>
<circle cx="871.394" cy="609.394" r="701.899" transform="rotate(60.8882 871.394 609.394)" stroke="url(#paint2_linear_166_3)" stroke-opacity="0.5" stroke-dasharray="5 5"/>
<path d="M870.5 500.667C871.973 500.667 873.167 499.473 873.167 498C873.167 496.527 871.973 495.333 870.5 495.333C869.027 495.333 867.833 496.527 867.833 498C867.833 499.473 869.027 500.667 870.5 500.667ZM871 498L871 -169L870 -169L870 498L871 498Z" fill="url(#paint3_linear_166_3)" fill-opacity="0.5"/>
<path d="M870.5 730.333C871.973 730.333 873.167 731.527 873.167 733C873.167 734.473 871.973 735.667 870.5 735.667C869.027 735.667 867.833 734.473 867.833 733C867.833 731.527 869.027 730.333 870.5 730.333ZM871 733L871 1400L870 1400L870 733L871 733Z" fill="url(#paint4_linear_166_3)" fill-opacity="0.5"/>
<defs>
<linearGradient id="paint0_linear_166_3" x1="871" y1="253" x2="871" y2="782" gradientUnits="userSpaceOnUse">
<stop stop-color="white"/>
<stop offset="1" stop-color="#262626"/>
</linearGradient>
<linearGradient id="paint1_linear_166_3" x1="713.191" y1="438.684" x2="1097.56" y2="749.442" gradientUnits="userSpaceOnUse">
<stop stop-color="white"/>
<stop offset="1" stop-color="#666666"/>
</linearGradient>
<linearGradient id="paint2_linear_166_3" x1="317.128" y1="-412.46" x2="871.394" y2="1311.79" gradientUnits="userSpaceOnUse">
<stop stop-color="white"/>
<stop offset="1" stop-color="#515151"/>
</linearGradient>
<linearGradient id="paint3_linear_166_3" x1="871.5" y1="-169" x2="871.5" y2="498" gradientUnits="userSpaceOnUse">
<stop/>
<stop offset="1" stop-color="#696969"/>
</linearGradient>
<linearGradient id="paint4_linear_166_3" x1="871.5" y1="1400" x2="871.5" y2="733" gradientUnits="userSpaceOnUse">
<stop/>
<stop offset="1" stop-color="#696969"/>
</linearGradient>
</defs>
</svg>
