<svg width="58" height="69" viewBox="0 0 58 69" fill="none" xmlns="http://www.w3.org/2000/svg">
<path d="M23.3182 67.464C23.3182 68.0163 22.8705 68.464 22.3182 68.464L1.51843 68.464C0.966148 68.464 0.518433 68.0163 0.518433 67.464L0.518433 58.0637C0.518433 57.5114 0.966148 57.0637 1.51843 57.0637H10.9188C11.4711 57.0637 11.9188 56.6159 11.9188 56.0637L11.9188 35.2648C11.9188 34.7125 12.3665 34.2648 12.9188 34.2648H22.3182C22.8705 34.2648 23.3182 34.7125 23.3182 35.2648V67.464ZM46.119 45.6638C46.119 45.664 46.1188 45.6642 46.1185 45.6642V45.6642C46.1183 45.6642 46.118 45.6645 46.118 45.6647L46.118 56.0637C46.118 56.6159 46.5658 57.0637 47.118 57.0637H56.5184C57.0707 57.0637 57.5184 57.5114 57.5184 58.0637L57.5184 67.464C57.5184 68.0163 57.0707 68.464 56.5184 68.464L35.7186 68.464C35.1663 68.464 34.7186 68.0163 34.7186 67.464L34.7186 35.2648C34.7186 34.7125 35.1663 34.2648 35.7186 34.2648H45.119C45.6713 34.2648 46.119 34.7125 46.119 35.2648L46.119 45.6638ZM34.7186 33.2639C34.7186 33.8161 34.2709 34.2639 33.7186 34.2639H24.3182C23.766 34.2639 23.3182 33.8161 23.3182 33.2639L23.3182 1.06366C23.3182 0.511375 23.766 0.0636597 24.3182 0.0636597H33.7186C34.2709 0.0636597 34.7186 0.511375 34.7186 1.06366L34.7186 33.2639Z" fill="#06BCA7"/>
</svg>
