<svg width="347" height="464" viewBox="0 0 347 464" fill="none" xmlns="http://www.w3.org/2000/svg">
<path fill-rule="evenodd" clip-rule="evenodd" d="M280.275 0.555945C282.89 -0.789617 286.095 0.4 287.198 3.12529L337.938 128.455C339.114 131.36 337.358 134.619 334.284 135.234L215.365 159.015C209.331 160.222 210.383 169.144 216.532 168.914L341.342 164.251C344.239 164.142 346.62 166.513 346.526 169.41L341.868 312.425C341.776 315.234 339.387 317.416 336.581 317.254L268.066 313.282C262.293 312.947 260.654 321.049 266.103 322.985L326.788 344.539C329.468 345.49 330.815 348.483 329.751 351.12L285.818 460.069C284.694 462.856 281.382 464.029 278.754 462.57L2.53604 309.231C1.01419 308.386 0.180449 306.97 0 305.488C42.0518 300.632 74.7008 264.904 74.7008 221.55C74.7008 183.869 50.036 151.948 15.9702 141.052C14.4423 139.837 14.5744 137.315 16.4521 136.349L280.275 0.555945Z" fill="#949494" fill-opacity="0.5"/>
</svg>
