<svg width="347" height="464" viewBox="0 0 347 464" fill="none" xmlns="http://www.w3.org/2000/svg">
<path d="M280.274 0.555852C282.889 -0.789525 286.094 0.399982 287.197 3.12519L337.938 128.454C339.114 131.36 337.357 134.619 334.283 135.234L215.359 159.016C209.325 160.222 210.377 169.145 216.526 168.915L341.341 164.251C344.238 164.143 346.62 166.513 346.525 169.41L341.867 312.425C341.776 315.235 339.386 317.417 336.58 317.254L268.065 313.282C262.292 312.948 260.653 321.05 266.103 322.986L326.787 344.539C329.467 345.491 330.814 348.483 329.751 351.12L285.817 460.07C284.693 462.857 281.381 464.029 278.753 462.571L2.53516 309.232C1.01266 308.386 0.179969 306.969 0 305.487C42.0511 300.63 74.7 264.904 74.7002 221.551C74.7002 183.873 50.0388 151.955 15.9775 141.056C14.4421 139.844 14.5708 137.318 16.4512 136.35L280.274 0.555852Z" fill="#171717"/>
</svg>
