<svg width="21" height="27" viewBox="0 0 21 27" fill="none" xmlns="http://www.w3.org/2000/svg">
<path d="M7 5C7 5.55228 7.44772 6 8 6H13C13.5523 6 14 5.55228 14 5V1C14 0.447715 14.4477 0 15 0H20C20.5523 0 21 0.447715 21 1V6C21 6.55228 20.5523 7 20 7H15C14.4477 7 14 7.44772 14 8V12C14 12.5523 14.4477 13 15 13H20C20.5523 13 21 13.4477 21 14V26C21 26.5523 20.5523 27 20 27H15C14.4477 27 14 26.5523 14 26V21C14 20.4477 13.5523 20 13 20H8C7.44772 20 7 20.4477 7 21V26C7 26.5523 6.55228 27 6 27H1C0.447715 27 0 26.5523 0 26V14C0 13.4477 0.447715 13 1 13H6C6.55228 13 7 12.5523 7 12V8C7 7.44772 6.55228 7 6 7H1C0.447715 7 0 6.55228 0 6V1C0 0.447715 0.447715 0 1 0H6C6.55228 0 7 0.447715 7 1V5Z" fill="white"/>
</svg>
