<svg width="28" height="28" viewBox="0 0 28 28" fill="none" xmlns="http://www.w3.org/2000/svg">
<path d="M14 7C17.866 7 21 10.134 21 14C21 17.866 17.866 21 14 21C10.134 21 7 17.866 7 14C7 10.134 10.134 7 14 7Z" fill="#0b9b79"/>
<path fill-rule="evenodd" clip-rule="evenodd" d="M23 0C25.7614 0 28 2.23858 28 5V23C28 25.7614 25.7614 28 23 28H5L4.74316 27.9932C2.10111 27.8595 0 25.6753 0 23V5C0 2.23858 2.23858 0 5 0H23ZM5 2C3.34315 2 2 3.34315 2 5V23C2 24.6569 3.34315 26 5 26H23C24.6569 26 26 24.6569 26 23V5C26 3.34315 24.6569 2 23 2H5Z" fill="#0b9b79"/>
</svg>
